<svg width="47" height="47" viewBox="0 0 47 47" fill="none" xmlns="http://www.w3.org/2000/svg">
<circle cx="23.5" cy="23.5" r="23" fill="#E9E9E9" stroke="white"/>
<path d="M24.6426 30H26.8047V27.5654H28.5186V25.6934H26.8047V17.3174H23.6055C23.2598 17.8447 22.9111 18.3809 22.5596 18.9258C22.2139 19.4707 21.8652 20.0244 21.5137 20.5869C21.168 21.1436 20.8193 21.709 20.4678 22.2832C20.1221 22.8516 19.7793 23.4229 19.4395 23.9971C19.0996 24.5654 18.7656 25.1367 18.4375 25.7109V27.5654H24.6426V30ZM20.5381 25.7461V25.623C20.7842 25.1895 21.0391 24.7529 21.3027 24.3135C21.5664 23.8682 21.833 23.4229 22.1025 22.9775C22.3779 22.5322 22.6533 22.0898 22.9287 21.6504C23.2041 21.2109 23.4766 20.7803 23.7461 20.3584C24.0215 19.9365 24.291 19.5264 24.5547 19.1279H24.6777V25.7461H20.5381Z" fill="black"/>
</svg>
