<svg width="47" height="47" viewBox="0 0 47 47" fill="none" xmlns="http://www.w3.org/2000/svg">
<circle cx="23.5" cy="23.5" r="23" fill="#E9E9E9" stroke="white"/>
<path d="M18.9561 30H21.2148V25.2275H23.623C23.6406 25.2275 23.6582 25.2275 23.6758 25.2275C23.6992 25.2275 23.7197 25.2275 23.7373 25.2275L26.2246 30H28.8086L26.04 24.8848C26.79 24.6094 27.376 24.1494 27.7979 23.5049C28.2197 22.8545 28.4307 22.1104 28.4307 21.2725V21.2549C28.4307 20.4463 28.2549 19.749 27.9033 19.1631C27.5576 18.5771 27.0596 18.123 26.4092 17.8008C25.7588 17.4785 24.9795 17.3174 24.0713 17.3174H18.9561V30ZM21.2148 23.4785V19.1455H23.79C24.5107 19.1455 25.0762 19.3389 25.4863 19.7256C25.9023 20.1123 26.1104 20.6396 26.1104 21.3076V21.3252C26.1104 22.0049 25.9111 22.5352 25.5127 22.916C25.1143 23.291 24.5576 23.4785 23.8428 23.4785H21.2148Z" fill="black"/>
</svg>
