<svg width="11" height="16" viewBox="0 0 11 16" fill="none" xmlns="http://www.w3.org/2000/svg">
<path d="M0.179516 15.139H5.57652C8.97852 15.139 10.5955 13.417 10.5955 11.023C10.5955 8.923 9.41952 7.915 7.61352 7.579V7.516C9.33552 6.97 9.96552 5.878 9.96552 4.366C9.96552 2.077 8.53752 0.732999 5.21952 0.732999H0.179516V15.139ZM2.74152 13.207V8.587H5.07252C6.89952 8.587 7.88652 9.217 7.88652 10.876C7.88652 12.451 6.96252 13.207 5.21952 13.207H2.74152ZM2.74152 6.865V2.644H4.86252C6.52152 2.644 7.40352 3.169 7.40352 4.723C7.40352 6.361 6.26952 6.865 4.75752 6.865H2.74152Z" fill="#111111"/>
</svg>
