<svg width="24" height="24" viewBox="0 0 24 24" fill="none" xmlns="http://www.w3.org/2000/svg">
<circle cx="12" cy="12" r="12" fill="black" fill-opacity="0.7"/>
<g clip-path="url(#clip0_5076_41688)">
<path d="M10.1999 14.5015L8.11789 12.4195C8.00571 12.3073 7.85355 12.2443 7.69489 12.2443C7.53624 12.2443 7.38408 12.3073 7.27189 12.4195C7.15971 12.5317 7.09668 12.6839 7.09668 12.8425C7.09668 12.9211 7.11215 12.9989 7.14222 13.0714C7.17228 13.144 7.21634 13.21 7.27189 13.2655L9.77989 15.7735C10.0139 16.0075 10.3919 16.0075 10.6259 15.7735L16.9739 9.42551C17.0861 9.31332 17.1491 9.16117 17.1491 9.00251C17.1491 8.84385 17.0861 8.6917 16.9739 8.57951C16.8617 8.46732 16.7095 8.4043 16.5509 8.4043C16.3922 8.4043 16.2401 8.46732 16.1279 8.57951L10.1999 14.5015Z" fill="white"/>
</g>
<defs>
<clipPath id="clip0_5076_41688">
<rect width="14.4" height="14.4" fill="white" transform="translate(4.7998 4.7998)"/>
</clipPath>
</defs>
</svg>
