<svg width="28" height="29" viewBox="0 0 28 29" fill="none" xmlns="http://www.w3.org/2000/svg">
<path d="M13.9901 0.99707C6.26389 0.99707 0 7.26096 0 14.9872C0 20.9172 3.68464 25.9836 8.8892 28.0216C8.76254 26.9162 8.65891 25.2121 8.93526 24.0031C9.18858 22.9092 10.5703 17.0483 10.5703 17.0483C10.5703 17.0483 10.1558 16.2077 10.1558 14.9757C10.1558 13.0297 11.2842 11.5789 12.689 11.5789C13.8865 11.5789 14.4622 12.477 14.4622 13.5479C14.4622 14.7454 13.7023 16.5417 13.2993 18.2113C12.9653 19.6045 14.0016 20.7445 15.3719 20.7445C17.859 20.7445 19.7704 18.1191 19.7704 14.3424C19.7704 10.9917 17.3639 8.65422 13.921 8.65422C9.93702 8.65422 7.59958 11.6365 7.59958 14.7224C7.59958 15.9199 8.06016 17.2095 8.63588 17.9119C8.75103 18.0501 8.76254 18.1767 8.728 18.3149C8.62437 18.7524 8.38256 19.7082 8.3365 19.9039C8.27893 20.1572 8.12924 20.2148 7.86441 20.0881C6.1142 19.2706 5.02033 16.7259 5.02033 14.6648C5.02033 10.2547 8.22136 6.20163 14.2665 6.20163C19.1141 6.20163 22.8908 9.65598 22.8908 14.2848C22.8908 19.1094 19.851 22.9898 15.6367 22.9898C14.2204 22.9898 12.8847 22.2529 12.4357 21.3778C12.4357 21.3778 11.7333 24.0491 11.5606 24.7054C11.2497 25.926 10.3976 27.4459 9.82188 28.3786C11.1345 28.7816 12.5163 29.0004 13.9671 29.0004C21.6933 29.0004 27.9572 22.7365 27.9572 15.0102C27.9803 7.26096 21.7164 0.99707 13.9901 0.99707Z" fill="#E60023"/>
</svg>
