<svg width="28" height="28" viewBox="0 0 28 28" fill="none" xmlns="http://www.w3.org/2000/svg">
<path d="M2.63244 7.811H3.61944V4.1465H3.12594L2.08644 4.5875V5.1545L2.63244 5.081V7.811Z" fill="#111111"/>
<path d="M2.28702 15.7847H4.71252V15.0707H3.51027L3.75177 14.8135C3.95652 14.593 4.75452 13.8055 4.75452 13.123C4.75452 12.4352 4.32402 12.0782 3.41577 12.0782C2.98002 12.0782 2.60727 12.1465 2.32902 12.2882L2.40777 12.9655C2.60202 12.8815 2.91177 12.7975 3.09027 12.7975C3.49452 12.7975 3.75177 12.8815 3.75177 13.27C3.75177 13.6427 3.25827 14.1782 2.76477 14.7085L2.28702 15.2283V15.7847Z" fill="#111111"/>
<path d="M3.31506 23.8425C4.18656 23.8425 4.75356 23.4487 4.75356 22.7295C4.75356 22.2045 4.48056 21.9367 4.03431 21.858C4.42281 21.7162 4.64856 21.417 4.64856 20.9917C4.64856 20.3775 4.11831 20.0782 3.40431 20.0782C2.98956 20.0782 2.57481 20.1255 2.32806 20.2357L2.42256 20.9182C2.62206 20.85 2.88456 20.808 3.11556 20.808C3.45681 20.808 3.69831 20.913 3.69831 21.1755C3.69831 21.4327 3.42531 21.5587 3.07881 21.585L2.75856 21.5955V22.2307L3.13131 22.2465C3.48306 22.2622 3.72981 22.3357 3.72981 22.635C3.72981 22.9762 3.47256 23.1075 3.12606 23.1075C2.84256 23.1075 2.45406 23.0235 2.29656 22.929L2.16531 23.5905C2.38056 23.7217 2.85306 23.8425 3.31506 23.8425Z" fill="#111111"/>
<path d="M9 6H25" stroke="#111111" stroke-width="3" stroke-linecap="round"/>
<path d="M9 14H25" stroke="#111111" stroke-width="3" stroke-linecap="round"/>
<path d="M9 22H25" stroke="#111111" stroke-width="3" stroke-linecap="round"/>
</svg>
