<svg width="24" height="22" viewBox="0 0 24 22" fill="none" xmlns="http://www.w3.org/2000/svg">
<path fill-rule="evenodd" clip-rule="evenodd" d="M6.75 4.75C6.75 4.19772 6.30228 3.75 5.75 3.75C5.19772 3.75 4.75 4.19772 4.75 4.75V8.5H1C0.447715 8.5 0 8.94772 0 9.5C0 10.0523 0.447715 10.5 1 10.5H4.75V14.25C4.75 14.8023 5.19771 15.25 5.75 15.25C6.30228 15.25 6.75 14.8023 6.75 14.25V10.5H10.5C11.0523 10.5 11.5 10.0523 11.5 9.5C11.5 8.94772 11.0523 8.5 10.5 8.5H6.75V4.75Z" fill="#111111"/>
<path fill-rule="evenodd" clip-rule="evenodd" d="M22 0C22.412 0 22.6472 0.470382 22.4 0.8L22.1429 1.14286C22.0501 1.2665 22 1.41688 22 1.57143V7.08579C22 7.99129 22.3597 8.85971 23 9.5L23.6893 10.1893C23.8883 10.3883 24 10.658 24 10.9393C24 11.5251 23.5251 12 22.9393 12H22H20V19.7192C20 19.9057 19.9771 20.0915 19.9319 20.2724L19.6213 21.5149C19.55 21.8 19.2939 22 19 22C18.7061 22 18.45 21.8 18.3787 21.5149L18.0681 20.2724C18.0229 20.0915 18 19.9057 18 19.7192V12H16H15.0607C14.4749 12 14 11.5251 14 10.9393C14 10.658 14.1117 10.3883 14.3107 10.1893L15 9.5C15.6403 8.85971 16 7.99129 16 7.08579V1.57143C16 1.41688 15.9499 1.2665 15.8571 1.14286L15.6 0.8C15.3528 0.470382 15.588 0 16 0H22Z" fill="#111111"/>
</svg>
