<svg width="13" height="15" viewBox="0 0 13 15" fill="none" xmlns="http://www.w3.org/2000/svg">
<path d="M3.21055 15V14.118H3.69355C4.00155 14.118 4.28155 14.09 4.53355 14.034C4.79955 13.964 5.00955 13.831 5.16355 13.635C5.33155 13.425 5.41555 13.117 5.41555 12.711V1.056H3.39955C2.99355 1.056 2.67155 1.14 2.43355 1.308C2.19555 1.462 2.02055 1.672 1.90855 1.938C1.79655 2.19 1.71955 2.47 1.67755 2.778L1.57255 3.681H0.480547L0.585547 0.00599903H12.4085L12.5135 3.681H11.4215L11.3165 2.778C11.2885 2.47 11.2115 2.19 11.0855 1.938C10.9735 1.672 10.7985 1.462 10.5605 1.308C10.3225 1.14 9.99355 1.056 9.57355 1.056H7.53655V12.606C7.53655 13.04 7.61355 13.369 7.76755 13.593C7.92155 13.803 8.13155 13.943 8.39755 14.013C8.66355 14.083 8.95055 14.118 9.25855 14.118H9.74155V15H3.21055Z" fill="#111111"/>
<path d="M0.0605469 8.238H12.9335V9.288H0.0605469V8.238Z" fill="#111111"/>
</svg>
