<svg width="24" height="16" viewBox="0 0 24 16" fill="none" xmlns="http://www.w3.org/2000/svg">
<path d="M0.632375 15.139H3.02638L4.32838 11.485H9.68338L10.9854 15.139H13.6524L8.52838 0.732999H5.88238L0.632375 15.139ZM6.95338 3.799H7.01638L9.03238 9.553H4.93738L6.95338 3.799ZM18.1546 15.328C19.5616 15.328 20.4226 14.866 20.9476 14.257H21.0736L21.2626 15.139H23.2576V7.369C23.2576 5.122 21.8086 4.156 19.3096 4.156C17.9026 4.156 16.7476 4.345 15.7396 4.744V6.403C16.3906 6.256 17.3146 6.109 18.3646 6.109C20.1916 6.109 20.8426 6.445 20.8426 7.915V8.734L18.3016 9.028C16.1596 9.343 14.8366 10.267 14.8366 12.262C14.8366 14.341 16.2016 15.328 18.1546 15.328ZM18.8896 13.627C17.9026 13.627 17.2096 13.165 17.2096 12.136C17.2096 11.044 17.7766 10.603 18.8476 10.519L20.8426 10.309V12.976C20.4436 13.354 19.6666 13.627 18.8896 13.627Z" fill="#111111"/>
</svg>
